{
    "asset" : {
        "generator" : "Khronos glTF Blender I/O v1.4.40",
        "version" : "2.0"
    },
    "scene" : 0,
    "scenes" : [
        {
            "name" : "Scene",
            "nodes" : [
                0,
                1,
                2,
                3,
                4,
                5,
                6
            ]
        }
    ],
    "nodes" : [
        {
            "mesh" : 0,
            "name" : "Cube",
            "rotation" : [
                0,
                1,
                0,
                -1.6292068494294654e-07
            ],
            "scale" : [
                1.1526830196380615,
                10.223118782043457,
                1
            ],
            "translation" : [
                2.4630846977233887,
                11.166847229003906,
                -2.606072425842285
            ]
        },
        {
            "name" : "Light",
            "rotation" : [
                -0.27217137813568115,
                0.5709474682807922,
                -0.16907572746276855,
                -0.7558803558349609
            ],
            "translation" : [
                -1.613160490989685,
                17.070709228515625,
                -1.6006182432174683
            ]
        },
        {
            "name" : "Camera",
            "rotation" : [
                0.483536034822464,
                0.33687159419059753,
                -0.20870360732078552,
                0.7804827094078064
            ],
            "translation" : [
                7.358891487121582,
                4.958309173583984,
                6.925790786743164
            ]
        },
        {
            "name" : "Vazio",
            "rotation" : [
                0,
                0,
                -0.7071067690849304,
                0.7071068286895752
            ],
            "scale" : [
                5.743629455566406,
                5.743629455566406,
                5.743629455566406
            ]
        },
        {
            "mesh" : 1,
            "name" : "Cilindro",
            "rotation" : [
                0,
                0.9998179078102112,
                -0.0190835390239954,
                -1.628910126783012e-07
            ],
            "scale" : [
                0.05949896574020386,
                3.3877108097076416,
                0.059787191450595856
            ],
            "translation" : [
                2.468621253967285,
                22.827716827392578,
                -3.248950958251953
            ]
        },
        {
            "mesh" : 2,
            "name" : "Cubo",
            "rotation" : [
                0,
                1,
                0,
                -1.6292068494294654e-07
            ],
            "scale" : [
                2.5981125831604004,
                -0.2416181117296219,
                2.5981125831604004
            ],
            "translation" : [
                2.6241960525512695,
                0.2572660446166992,
                -2.6010518074035645
            ]
        },
        {
            "mesh" : 3,
            "name" : "Cilindro.001",
            "rotation" : [
                -3.734756319317967e-05,
                0.9998612403869629,
                -0.016663383692502975,
                -0.0001857713214121759
            ],
            "scale" : [
                0.05949896574020386,
                3.3877108097076416,
                0.059787191450595856
            ],
            "translation" : [
                2.468621253967285,
                22.827716827392578,
                -1.847651720046997
            ]
        }
    ],
    "materials" : [
        {
            "doubleSided" : true,
            "name" : "Material",
            "pbrMetallicRoughness" : {
                "baseColorFactor" : [
                    0.800000011920929,
                    0.800000011920929,
                    0.800000011920929,
                    1
                ],
                "metallicFactor" : 0,
                "roughnessFactor" : 0.4000000059604645
            }
        }
    ],
    "meshes" : [
        {
            "name" : "Cube",
            "primitives" : [
                {
                    "attributes" : {
                        "POSITION" : 0,
                        "NORMAL" : 1,
                        "TEXCOORD_0" : 2
                    },
                    "indices" : 3,
                    "material" : 0
                }
            ]
        },
        {
            "name" : "Cilindro",
            "primitives" : [
                {
                    "attributes" : {
                        "POSITION" : 4,
                        "NORMAL" : 5,
                        "TEXCOORD_0" : 6
                    },
                    "indices" : 7
                }
            ]
        },
        {
            "name" : "Cubo",
            "primitives" : [
                {
                    "attributes" : {
                        "POSITION" : 8,
                        "NORMAL" : 9,
                        "TEXCOORD_0" : 10
                    },
                    "indices" : 11
                }
            ]
        },
        {
            "name" : "Cilindro.001",
            "primitives" : [
                {
                    "attributes" : {
                        "POSITION" : 12,
                        "NORMAL" : 13,
                        "TEXCOORD_0" : 14
                    },
                    "indices" : 7
                }
            ]
        }
    ],
    "accessors" : [
        {
            "bufferView" : 0,
            "componentType" : 5126,
            "count" : 200,
            "max" : [
                1,
                0.98406583070755,
                1
            ],
            "min" : [
                -1,
                -1,
                -2.817790985107422
            ],
            "type" : "VEC3"
        },
        {
            "bufferView" : 1,
            "componentType" : 5126,
            "count" : 200,
            "type" : "VEC3"
        },
        {
            "bufferView" : 2,
            "componentType" : 5126,
            "count" : 200,
            "type" : "VEC2"
        },
        {
            "bufferView" : 3,
            "componentType" : 5123,
            "count" : 396,
            "type" : "SCALAR"
        },
        {
            "bufferView" : 4,
            "componentType" : 5126,
            "count" : 130,
            "max" : [
                1,
                0.9998689889907837,
                0.8055782318115234
            ],
            "min" : [
                -1,
                -1.0001311302185059,
                -1.1944217681884766
            ],
            "type" : "VEC3"
        },
        {
            "bufferView" : 5,
            "componentType" : 5126,
            "count" : 130,
            "type" : "VEC3"
        },
        {
            "bufferView" : 6,
            "componentType" : 5126,
            "count" : 130,
            "type" : "VEC2"
        },
        {
            "bufferView" : 7,
            "componentType" : 5123,
            "count" : 372,
            "type" : "SCALAR"
        },
        {
            "bufferView" : 8,
            "componentType" : 5126,
            "count" : 24,
            "max" : [
                1,
                1,
                1
            ],
            "min" : [
                -1,
                -1,
                -1
            ],
            "type" : "VEC3"
        },
        {
            "bufferView" : 9,
            "componentType" : 5126,
            "count" : 24,
            "type" : "VEC3"
        },
        {
            "bufferView" : 10,
            "componentType" : 5126,
            "count" : 24,
            "type" : "VEC2"
        },
        {
            "bufferView" : 11,
            "componentType" : 5123,
            "count" : 36,
            "type" : "SCALAR"
        },
        {
            "bufferView" : 12,
            "componentType" : 5126,
            "count" : 130,
            "max" : [
                1,
                0.9998689889907837,
                0.8055782318115234
            ],
            "min" : [
                -1,
                -1.0001311302185059,
                -1.1944217681884766
            ],
            "type" : "VEC3"
        },
        {
            "bufferView" : 13,
            "componentType" : 5126,
            "count" : 130,
            "type" : "VEC3"
        },
        {
            "bufferView" : 14,
            "componentType" : 5126,
            "count" : 130,
            "type" : "VEC2"
        }
    ],
    "bufferViews" : [
        {
            "buffer" : 0,
            "byteLength" : 2400,
            "byteOffset" : 0
        },
        {
            "buffer" : 0,
            "byteLength" : 2400,
            "byteOffset" : 2400
        },
        {
            "buffer" : 0,
            "byteLength" : 1600,
            "byteOffset" : 4800
        },
        {
            "buffer" : 0,
            "byteLength" : 792,
            "byteOffset" : 6400
        },
        {
            "buffer" : 0,
            "byteLength" : 1560,
            "byteOffset" : 7192
        },
        {
            "buffer" : 0,
            "byteLength" : 1560,
            "byteOffset" : 8752
        },
        {
            "buffer" : 0,
            "byteLength" : 1040,
            "byteOffset" : 10312
        },
        {
            "buffer" : 0,
            "byteLength" : 744,
            "byteOffset" : 11352
        },
        {
            "buffer" : 0,
            "byteLength" : 288,
            "byteOffset" : 12096
        },
        {
            "buffer" : 0,
            "byteLength" : 288,
            "byteOffset" : 12384
        },
        {
            "buffer" : 0,
            "byteLength" : 192,
            "byteOffset" : 12672
        },
        {
            "buffer" : 0,
            "byteLength" : 72,
            "byteOffset" : 12864
        },
        {
            "buffer" : 0,
            "byteLength" : 1560,
            "byteOffset" : 12936
        },
        {
            "buffer" : 0,
            "byteLength" : 1560,
            "byteOffset" : 14496
        },
        {
            "buffer" : 0,
            "byteLength" : 1040,
            "byteOffset" : 16056
        }
    ],
    "buffers" : [
        {
            "byteLength" : 17096,
            "uri" : "data:application/octet-stream;base64,"
        }
    ]
}
