{
    "asset" : {
        "generator" : "Khronos glTF Blender I/O v1.4.40",
        "version" : "2.0"
    },
    "scene" : 0,
    "scenes" : [
        {
            "name" : "Scene",
            "nodes" : [
                0,
                1,
                2,
                3
            ]
        }
    ],
    "nodes" : [
        {
            "mesh" : 0,
            "name" : "Cubo",
            "scale" : [
                0.5489713549613953,
                0.5489713549613953,
                0.5489713549613953
            ]
        },
        {
            "mesh" : 1,
            "name" : "Plano",
            "rotation" : [
                0,
                0,
                -0.7071068286895752,
                0.7071068286895752
            ],
            "scale" : [
                0.3915162980556488,
                0.41685646772384644,
                0.4041863977909088
            ],
            "translation" : [
                -0.16999995708465576,
                1.0399999618530273,
                0
            ]
        },
        {
            "mesh" : 2,
            "name" : "Cubo.001",
            "scale" : [
                0.6043822765350342,
                -0.10617884993553162,
                0.6043822765350342
            ],
            "translation" : [
                0,
                -0.6411828398704529,
                0
            ]
        },
        {
            "mesh" : 3,
            "name" : "Cubo.002",
            "scale" : [
                3.8472864627838135,
                0.11735288053750992,
                2.604959726333618
            ],
            "translation" : [
                1.1935484409332275,
                -0.877204418182373,
                0
            ]
        }
    ],
    "materials" : [
        {
            "doubleSided" : true,
            "name" : "Escultura",
            "pbrMetallicRoughness" : {
                "metallicFactor" : 0,
                "roughnessFactor" : 0.6909091472625732
            }
        },
        {
            "doubleSided" : true,
            "name" : "Granito",
            "pbrMetallicRoughness" : {
                "metallicFactor" : 0,
                "roughnessFactor" : 0.6727272868156433
            }
        },
        {
            "doubleSided" : true,
            "name" : "Ch\u00e3o",
            "pbrMetallicRoughness" : {
                "metallicFactor" : 0,
                "roughnessFactor" : 0.29545456171035767
            }
        }
    ],
    "meshes" : [
        {
            "name" : "Cubo",
            "primitives" : [
                {
                    "attributes" : {
                        "POSITION" : 0,
                        "NORMAL" : 1,
                        "TEXCOORD_0" : 2
                    },
                    "indices" : 3,
                    "material" : 0
                }
            ]
        },
        {
            "name" : "Plano.002",
            "primitives" : [
                {
                    "attributes" : {
                        "POSITION" : 4,
                        "NORMAL" : 5,
                        "TEXCOORD_0" : 6
                    },
                    "indices" : 7,
                    "material" : 1
                }
            ]
        },
        {
            "name" : "Cubo.005",
            "primitives" : [
                {
                    "attributes" : {
                        "POSITION" : 8,
                        "NORMAL" : 9,
                        "TEXCOORD_0" : 10
                    },
                    "indices" : 11,
                    "material" : 1
                }
            ]
        },
        {
            "name" : "Cubo.001",
            "primitives" : [
                {
                    "attributes" : {
                        "POSITION" : 12,
                        "NORMAL" : 13,
                        "TEXCOORD_0" : 14
                    },
                    "indices" : 15,
                    "material" : 2
                }
            ]
        }
    ],
    "accessors" : [
        {
            "bufferView" : 0,
            "componentType" : 5126,
            "count" : 223,
            "max" : [
                1,
                4.660444259643555,
                1
            ],
            "min" : [
                -1,
                -1,
                -1
            ],
            "type" : "VEC3"
        },
        {
            "bufferView" : 1,
            "componentType" : 5126,
            "count" : 223,
            "type" : "VEC3"
        },
        {
            "bufferView" : 2,
            "componentType" : 5126,
            "count" : 223,
            "type" : "VEC2"
        },
        {
            "bufferView" : 3,
            "componentType" : 5123,
            "count" : 396,
            "type" : "SCALAR"
        },
        {
            "bufferView" : 4,
            "componentType" : 5126,
            "count" : 1452,
            "max" : [
                1,
                0.4561147689819336,
                1
            ],
            "min" : [
                -1.103817105293274,
                -7.497189535854432e-09,
                -1
            ],
            "type" : "VEC3"
        },
        {
            "bufferView" : 5,
            "componentType" : 5126,
            "count" : 1452,
            "type" : "VEC3"
        },
        {
            "bufferView" : 6,
            "componentType" : 5126,
            "count" : 1452,
            "type" : "VEC2"
        },
        {
            "bufferView" : 7,
            "componentType" : 5123,
            "count" : 2580,
            "type" : "SCALAR"
        },
        {
            "bufferView" : 8,
            "componentType" : 5126,
            "count" : 136,
            "max" : [
                6.819135665893555,
                1,
                2.939711809158325
            ],
            "min" : [
                -2.939711809158325,
                -1,
                -2.939711809158325
            ],
            "type" : "VEC3"
        },
        {
            "bufferView" : 9,
            "componentType" : 5126,
            "count" : 136,
            "type" : "VEC3"
        },
        {
            "bufferView" : 10,
            "componentType" : 5126,
            "count" : 136,
            "type" : "VEC2"
        },
        {
            "bufferView" : 11,
            "componentType" : 5123,
            "count" : 204,
            "type" : "SCALAR"
        },
        {
            "bufferView" : 12,
            "componentType" : 5126,
            "count" : 448,
            "max" : [
                1,
                2.6262271404266357,
                1
            ],
            "min" : [
                -1,
                -1,
                -1
            ],
            "type" : "VEC3"
        },
        {
            "bufferView" : 13,
            "componentType" : 5126,
            "count" : 448,
            "type" : "VEC3"
        },
        {
            "bufferView" : 14,
            "componentType" : 5126,
            "count" : 448,
            "type" : "VEC2"
        },
        {
            "bufferView" : 15,
            "componentType" : 5123,
            "count" : 672,
            "type" : "SCALAR"
        }
    ],
    "bufferViews" : [
        {
            "buffer" : 0,
            "byteLength" : 2676,
            "byteOffset" : 0
        },
        {
            "buffer" : 0,
            "byteLength" : 2676,
            "byteOffset" : 2676
        },
        {
            "buffer" : 0,
            "byteLength" : 1784,
            "byteOffset" : 5352
        },
        {
            "buffer" : 0,
            "byteLength" : 792,
            "byteOffset" : 7136
        },
        {
            "buffer" : 0,
            "byteLength" : 17424,
            "byteOffset" : 7928
        },
        {
            "buffer" : 0,
            "byteLength" : 17424,
            "byteOffset" : 25352
        },
        {
            "buffer" : 0,
            "byteLength" : 11616,
            "byteOffset" : 42776
        },
        {
            "buffer" : 0,
            "byteLength" : 5160,
            "byteOffset" : 54392
        },
        {
            "buffer" : 0,
            "byteLength" : 1632,
            "byteOffset" : 59552
        },
        {
            "buffer" : 0,
            "byteLength" : 1632,
            "byteOffset" : 61184
        },
        {
            "buffer" : 0,
            "byteLength" : 1088,
            "byteOffset" : 62816
        },
        {
            "buffer" : 0,
            "byteLength" : 408,
            "byteOffset" : 63904
        },
        {
            "buffer" : 0,
            "byteLength" : 5376,
            "byteOffset" : 64312
        },
        {
            "buffer" : 0,
            "byteLength" : 5376,
            "byteOffset" : 69688
        },
        {
            "buffer" : 0,
            "byteLength" : 3584,
            "byteOffset" : 75064
        },
        {
            "buffer" : 0,
            "byteLength" : 1344,
            "byteOffset" : 78648
        }
    ],
    "buffers" : [
        {
            "byteLength" : 79992,
            "uri" : "data:application/octet-stream;base64,"
        }
    ]
}
