{
    "asset" : {
        "generator" : "Khronos glTF Blender I/O v1.4.40",
        "version" : "2.0"
    },
    "scene" : 0,
    "scenes" : [
        {
            "name" : "Scene",
            "nodes" : [
                0
            ]
        }
    ],
    "nodes" : [
        {
            "mesh" : 0,
            "name" : "Cubo.001",
            "scale" : [
                0.6043822765350342,
                -0.10617884993553162,
                0.6043822765350342
            ],
            "translation" : [
                0,
                0.3265591263771057,
                0
            ]
        }
    ],
    "materials" : [
        {
            "doubleSided" : true,
            "name" : "Granito",
            "pbrMetallicRoughness" : {
                "baseColorTexture" : {
                    "index" : 0,
                    "texCoord" : 0
                },
                "metallicFactor" : 0,
                "roughnessFactor" : 0.6727272868156433
            }
        },
        {
            "doubleSided" : true,
            "name" : "Escultura",
            "pbrMetallicRoughness" : {
                "baseColorTexture" : {
                    "index" : 1,
                    "texCoord" : 0
                },
                "metallicFactor" : 0,
                "roughnessFactor" : 0.6909091472625732
            }
        },
        {
            "doubleSided" : true,
            "name" : "Ch\u00e3o",
            "pbrMetallicRoughness" : {
                "baseColorTexture" : {
                    "index" : 2,
                    "texCoord" : 0
                },
                "metallicFactor" : 0,
                "roughnessFactor" : 0.29545456171035767
            }
        }
    ],
    "meshes" : [
        {
            "name" : "Cubo.005",
            "primitives" : [
                {
                    "attributes" : {
                        "POSITION" : 0,
                        "NORMAL" : 1,
                        "TEXCOORD_0" : 2
                    },
                    "indices" : 3,
                    "material" : 0
                },
                {
                    "attributes" : {
                        "POSITION" : 4,
                        "NORMAL" : 5,
                        "TEXCOORD_0" : 6
                    },
                    "indices" : 7,
                    "material" : 1
                },
                {
                    "attributes" : {
                        "POSITION" : 8,
                        "NORMAL" : 9,
                        "TEXCOORD_0" : 10
                    },
                    "indices" : 11,
                    "material" : 2
                }
            ]
        }
    ],
    "textures" : [
        {
            "sampler" : 0,
            "source" : 0
        },
        {
            "sampler" : 0,
            "source" : 0
        },
        {
            "sampler" : 0,
            "source" : 1
        }
    ],
    "images" : [
        {
            "bufferView" : 4,
            "mimeType" : "image/png",
            "name" : "Textura1"
        },
        {
            "bufferView" : 13,
            "mimeType" : "image/png",
            "name" : "Textura2"
        }
    ],
    "accessors" : [
        {
            "bufferView" : 0,
            "componentType" : 5126,
            "count" : 1597,
            "max" : [
                6.819135665893555,
                1,
                2.939711809158325
            ],
            "min" : [
                -2.939711809158325,
                -20.106176376342773,
                -2.939711809158325
            ],
            "type" : "VEC3"
        },
        {
            "bufferView" : 1,
            "componentType" : 5126,
            "count" : 1597,
            "type" : "VEC3"
        },
        {
            "bufferView" : 2,
            "componentType" : 5126,
            "count" : 1597,
            "type" : "VEC2"
        },
        {
            "bufferView" : 3,
            "componentType" : 5123,
            "count" : 2784,
            "type" : "SCALAR"
        },
        {
            "bufferView" : 5,
            "componentType" : 5126,
            "count" : 202,
            "max" : [
                0.9083181619644165,
                -0.8684544563293457,
                0.9083181619644165
            ],
            "min" : [
                -0.9083181619644165,
                -30.134376525878906,
                -0.9083181619644165
            ],
            "type" : "VEC3"
        },
        {
            "bufferView" : 6,
            "componentType" : 5126,
            "count" : 202,
            "type" : "VEC3"
        },
        {
            "bufferView" : 7,
            "componentType" : 5126,
            "count" : 202,
            "type" : "VEC2"
        },
        {
            "bufferView" : 8,
            "componentType" : 5123,
            "count" : 396,
            "type" : "SCALAR"
        },
        {
            "bufferView" : 9,
            "componentType" : 5126,
            "count" : 448,
            "max" : [
                8.340475082397461,
                3.328105926513672,
                4.31011962890625
            ],
            "min" : [
                -4.390827178955078,
                0.09477949142456055,
                -4.31011962890625
            ],
            "type" : "VEC3"
        },
        {
            "bufferView" : 10,
            "componentType" : 5126,
            "count" : 448,
            "type" : "VEC3"
        },
        {
            "bufferView" : 11,
            "componentType" : 5126,
            "count" : 448,
            "type" : "VEC2"
        },
        {
            "bufferView" : 12,
            "componentType" : 5123,
            "count" : 672,
            "type" : "SCALAR"
        }
    ],
    "bufferViews" : [
        {
            "buffer" : 0,
            "byteLength" : 19164,
            "byteOffset" : 0
        },
        {
            "buffer" : 0,
            "byteLength" : 19164,
            "byteOffset" : 19164
        },
        {
            "buffer" : 0,
            "byteLength" : 12776,
            "byteOffset" : 38328
        },
        {
            "buffer" : 0,
            "byteLength" : 5568,
            "byteOffset" : 51104
        },
        {
            "buffer" : 0,
            "byteLength" : 678831,
            "byteOffset" : 56672
        },
        {
            "buffer" : 0,
            "byteLength" : 2424,
            "byteOffset" : 735504
        },
        {
            "buffer" : 0,
            "byteLength" : 2424,
            "byteOffset" : 737928
        },
        {
            "buffer" : 0,
            "byteLength" : 1616,
            "byteOffset" : 740352
        },
        {
            "buffer" : 0,
            "byteLength" : 792,
            "byteOffset" : 741968
        },
        {
            "buffer" : 0,
            "byteLength" : 5376,
            "byteOffset" : 742760
        },
        {
            "buffer" : 0,
            "byteLength" : 5376,
            "byteOffset" : 748136
        },
        {
            "buffer" : 0,
            "byteLength" : 3584,
            "byteOffset" : 753512
        },
        {
            "buffer" : 0,
            "byteLength" : 1344,
            "byteOffset" : 757096
        },
        {
            "buffer" : 0,
            "byteLength" : 1392559,
            "byteOffset" : 758440
        }
    ],
    "samplers" : [
        {
            "magFilter" : 9729,
            "minFilter" : 9986
        }
    ],
    "buffers" : [
        {
            "byteLength" : 2151000,
            "uri" : "data:application/octet-stream;base64,"
        }
    ]
}
