{
    "asset" : {
        "generator" : "Khronos glTF Blender I/O v1.4.40",
        "version" : "2.0"
    },
    "scene" : 0,
    "scenes" : [
        {
            "name" : "Scene",
            "nodes" : [
                0
            ]
        }
    ],
    "nodes" : [
        {
            "mesh" : 0,
            "name" : "Plano",
            "rotation" : [
                0,
                0,
                -0.7071068286895752,
                0.7071068286895752
            ],
            "scale" : [
                0.0867663323879242,
                0.09238212555646896,
                0.08957423269748688
            ],
            "translation" : [
                0,
                0.45677417516708374,
                0
            ]
        }
    ],
    "materials" : [
        {
            "doubleSided" : true,
            "name" : "Granito",
            "pbrMetallicRoughness" : {
                "baseColorTexture" : {
                    "index" : 0,
                    "texCoord" : 0
                },
                "metallicFactor" : 0,
                "roughnessFactor" : 0.6727272868156433
            }
        },
        {
            "doubleSided" : true,
            "name" : "Escultura",
            "pbrMetallicRoughness" : {
                "baseColorTexture" : {
                    "index" : 1,
                    "texCoord" : 0
                },
                "metallicFactor" : 0,
                "roughnessFactor" : 0.6909091472625732
            }
        },
        {
            "doubleSided" : true,
            "name" : "Ch\u00e3o",
            "pbrMetallicRoughness" : {
                "baseColorTexture" : {
                    "index" : 2,
                    "texCoord" : 0
                },
                "metallicFactor" : 0,
                "roughnessFactor" : 0.29545456171035767
            }
        }
    ],
    "meshes" : [
        {
            "name" : "Plano.002",
            "primitives" : [
                {
                    "attributes" : {
                        "POSITION" : 0,
                        "NORMAL" : 1,
                        "TEXCOORD_0" : 2
                    },
                    "indices" : 3,
                    "material" : 0
                },
                {
                    "attributes" : {
                        "POSITION" : 4,
                        "NORMAL" : 5,
                        "TEXCOORD_0" : 6
                    },
                    "indices" : 7,
                    "material" : 1
                },
                {
                    "attributes" : {
                        "POSITION" : 8,
                        "NORMAL" : 9,
                        "TEXCOORD_0" : 10
                    },
                    "indices" : 11,
                    "material" : 2
                }
            ]
        }
    ],
    "textures" : [
        {
            "sampler" : 0,
            "source" : 0
        },
        {
            "sampler" : 0,
            "source" : 0
        },
        {
            "sampler" : 0,
            "source" : 1
        }
    ],
    "images" : [
        {
            "mimeType" : "image/png",
            "name" : "Textura1",
            "uri" : "Textura1.png"
        },
        {
            "mimeType" : "image/png",
            "name" : "Textura2",
            "uri" : "Textura2.png"
        }
    ],
    "accessors" : [
        {
            "bufferView" : 0,
            "componentType" : 5126,
            "count" : 1588,
            "max" : [
                4.620157718658447,
                10.242996215820312,
                4.395767688751221
            ],
            "min" : [
                -1.103817105293274,
                -3.9059369564056396,
                -4.395767688751221
            ],
            "type" : "VEC3"
        },
        {
            "bufferView" : 1,
            "componentType" : 5126,
            "count" : 1588,
            "type" : "VEC3"
        },
        {
            "bufferView" : 2,
            "componentType" : 5126,
            "count" : 1588,
            "type" : "VEC2"
        },
        {
            "bufferView" : 3,
            "componentType" : 5123,
            "count" : 2784,
            "type" : "SCALAR"
        },
        {
            "bufferView" : 4,
            "componentType" : 5126,
            "count" : 220,
            "max" : [
                4.113434791564941,
                1.6731561422348022,
                1.358213186264038
            ],
            "min" : [
                -3.823455572128296,
                -0.9607065916061401,
                -1.358213186264038
            ],
            "type" : "VEC3"
        },
        {
            "bufferView" : 5,
            "componentType" : 5126,
            "count" : 220,
            "type" : "VEC3"
        },
        {
            "bufferView" : 6,
            "componentType" : 5126,
            "count" : 220,
            "type" : "VEC2"
        },
        {
            "bufferView" : 7,
            "componentType" : 5123,
            "count" : 396,
            "type" : "SCALAR"
        },
        {
            "bufferView" : 8,
            "componentType" : 5126,
            "count" : 448,
            "max" : [
                5.251538276672363,
                12.44871997833252,
                6.4449462890625
            ],
            "min" : [
                4.43925666809082,
                -6.0098466873168945,
                -6.4449462890625
            ],
            "type" : "VEC3"
        },
        {
            "bufferView" : 9,
            "componentType" : 5126,
            "count" : 448,
            "type" : "VEC3"
        },
        {
            "bufferView" : 10,
            "componentType" : 5126,
            "count" : 448,
            "type" : "VEC2"
        },
        {
            "bufferView" : 11,
            "componentType" : 5123,
            "count" : 672,
            "type" : "SCALAR"
        }
    ],
    "bufferViews" : [
        {
            "buffer" : 0,
            "byteLength" : 19056,
            "byteOffset" : 0
        },
        {
            "buffer" : 0,
            "byteLength" : 19056,
            "byteOffset" : 19056
        },
        {
            "buffer" : 0,
            "byteLength" : 12704,
            "byteOffset" : 38112
        },
        {
            "buffer" : 0,
            "byteLength" : 5568,
            "byteOffset" : 50816
        },
        {
            "buffer" : 0,
            "byteLength" : 2640,
            "byteOffset" : 56384
        },
        {
            "buffer" : 0,
            "byteLength" : 2640,
            "byteOffset" : 59024
        },
        {
            "buffer" : 0,
            "byteLength" : 1760,
            "byteOffset" : 61664
        },
        {
            "buffer" : 0,
            "byteLength" : 792,
            "byteOffset" : 63424
        },
        {
            "buffer" : 0,
            "byteLength" : 5376,
            "byteOffset" : 64216
        },
        {
            "buffer" : 0,
            "byteLength" : 5376,
            "byteOffset" : 69592
        },
        {
            "buffer" : 0,
            "byteLength" : 3584,
            "byteOffset" : 74968
        },
        {
            "buffer" : 0,
            "byteLength" : 1344,
            "byteOffset" : 78552
        }
    ],
    "samplers" : [
        {
            "magFilter" : 9729,
            "minFilter" : 9986
        }
    ],
    "buffers" : [
        {
            "byteLength" : 79896,
            "uri" : "MonumentoDedoDeDeus2.bin"
        }
    ]
}
