{
    "asset" : {
        "generator" : "Khronos glTF Blender I/O v1.4.40",
        "version" : "2.0"
    },
    "scene" : 0,
    "scenes" : [
        {
            "name" : "Scene",
            "nodes" : [
                0,
                1,
                2,
                3,
                4,
                5,
                6
            ]
        }
    ],
    "nodes" : [
        {
            "mesh" : 0,
            "name" : "Bra\u00e7o1",
            "rotation" : [
                0,
                -0.02081848494708538,
                0,
                -0.9997832775115967
            ],
            "scale" : [
                0.02047242783010006,
                0.9809194207191467,
                0.02047242783010006
            ],
            "translation" : [
                -0.002363986801356077,
                0.9776454567909241,
                0.0012322572292760015
            ]
        },
        {
            "mesh" : 1,
            "name" : "Bra\u00e7o2",
            "rotation" : [
                0,
                0.8116245865821838,
                0,
                -0.5841794013977051
            ],
            "scale" : [
                0.02047242783010006,
                0.9809194207191467,
                0.02047242783010006
            ],
            "translation" : [
                0.002962422790005803,
                0.9776454567909241,
                8.8042754214257e-05
            ]
        },
        {
            "mesh" : 2,
            "name" : "Bra\u00e7o3",
            "rotation" : [
                0,
                -0.1349608302116394,
                0,
                -0.9908510446548462
            ],
            "scale" : [
                0.02047242783010006,
                0.9809194207191467,
                0.02047242783010006
            ],
            "translation" : [
                0.0010472778230905533,
                0.9776454567909241,
                0.0025769080966711044
            ]
        },
        {
            "mesh" : 3,
            "name" : "Poste",
            "rotation" : [
                0,
                -0.0870957225561142,
                0,
                -0.9961999654769897
            ],
            "scale" : [
                0.02047242783010006,
                0.9809194207191467,
                0.02047242783010006
            ],
            "translation" : [
                0,
                0.9776454567909241,
                0
            ]
        },
        {
            "mesh" : 4,
            "name" : "Suporte",
            "rotation" : [
                0,
                -0.0870957225561142,
                0,
                -0.9961999654769897
            ],
            "scale" : [
                0.02047242783010006,
                0.9809194207191467,
                0.02047242783010006
            ],
            "translation" : [
                0,
                0.9776453971862793,
                0
            ]
        },
        {
            "mesh" : 5,
            "name" : "Lampada",
            "rotation" : [
                0,
                -0.0870957225561142,
                0,
                -0.9961999654769897
            ],
            "scale" : [
                0.02047242783010006,
                0.9809194207191467,
                0.02047242783010006
            ],
            "translation" : [
                0,
                0.9776453971862793,
                0
            ]
        },
        {
            "mesh" : 6,
            "name" : "TampaLampada",
            "rotation" : [
                0,
                0.7794614434242249,
                0,
                -0.6264501810073853
            ],
            "scale" : [
                0.13510540127754211,
                0.02228696085512638,
                0.13510540127754211
            ],
            "translation" : [
                0,
                2.323765754699707,
                0
            ]
        }
    ],
    "materials" : [
        {
            "doubleSided" : true,
            "name" : "TexturaPoste.001",
            "pbrMetallicRoughness" : {
                "baseColorTexture" : {
                    "index" : 0,
                    "texCoord" : 0
                },
                "metallicFactor" : 0,
                "roughnessFactor" : 0.5
            }
        },
        {
            "doubleSided" : true,
            "name" : "TexturaPoste.002",
            "pbrMetallicRoughness" : {
                "baseColorTexture" : {
                    "index" : 1,
                    "texCoord" : 0
                },
                "metallicFactor" : 0,
                "roughnessFactor" : 0.5
            }
        },
        {
            "doubleSided" : true,
            "name" : "TexturaPoste.003",
            "pbrMetallicRoughness" : {
                "baseColorTexture" : {
                    "index" : 2,
                    "texCoord" : 0
                },
                "metallicFactor" : 0,
                "roughnessFactor" : 0.5
            }
        },
        {
            "alphaMode" : "BLEND",
            "doubleSided" : true,
            "emissiveFactor" : [
                0.09673957526683807,
                0.09673957526683807,
                0.09673957526683807
            ],
            "name" : "TexturaPoste",
            "pbrMetallicRoughness" : {
                "baseColorTexture" : {
                    "index" : 3,
                    "texCoord" : 0
                },
                "metallicFactor" : 0,
                "roughnessFactor" : 0.5
            }
        },
        {
            "doubleSided" : true,
            "name" : "TexturaPoste.004",
            "pbrMetallicRoughness" : {
                "baseColorTexture" : {
                    "index" : 4,
                    "texCoord" : 0
                },
                "metallicFactor" : 0,
                "roughnessFactor" : 0.5
            }
        },
        {
            "doubleSided" : true,
            "name" : "Material",
            "pbrMetallicRoughness" : {
                "baseColorFactor" : [
                    0.800000011920929,
                    0.800000011920929,
                    0.800000011920929,
                    1
                ],
                "metallicFactor" : 0,
                "roughnessFactor" : 0.4000000059604645
            }
        },
        {
            "doubleSided" : true,
            "name" : "Materiais",
            "pbrMetallicRoughness" : {
                "baseColorFactor" : [
                    0.800000011920929,
                    0.800000011920929,
                    0.800000011920929,
                    1
                ],
                "metallicFactor" : 0,
                "roughnessFactor" : 0.5
            }
        }
    ],
    "meshes" : [
        {
            "name" : "Cilindro.005",
            "primitives" : [
                {
                    "attributes" : {
                        "POSITION" : 0,
                        "NORMAL" : 1,
                        "TEXCOORD_0" : 2
                    },
                    "indices" : 3,
                    "material" : 0
                }
            ]
        },
        {
            "name" : "Cilindro.006",
            "primitives" : [
                {
                    "attributes" : {
                        "POSITION" : 4,
                        "NORMAL" : 5,
                        "TEXCOORD_0" : 6
                    },
                    "indices" : 7,
                    "material" : 1
                }
            ]
        },
        {
            "name" : "Cilindro.007",
            "primitives" : [
                {
                    "attributes" : {
                        "POSITION" : 8,
                        "NORMAL" : 9,
                        "TEXCOORD_0" : 10
                    },
                    "indices" : 7,
                    "material" : 2
                }
            ]
        },
        {
            "name" : "Cilindro.003",
            "primitives" : [
                {
                    "attributes" : {
                        "POSITION" : 11,
                        "NORMAL" : 12,
                        "TEXCOORD_0" : 13
                    },
                    "indices" : 14,
                    "material" : 3
                }
            ]
        },
        {
            "name" : "Cilindro.008",
            "primitives" : [
                {
                    "attributes" : {
                        "POSITION" : 15,
                        "NORMAL" : 16,
                        "TEXCOORD_0" : 17
                    },
                    "indices" : 18,
                    "material" : 4
                }
            ]
        },
        {
            "name" : "Cilindro.004",
            "primitives" : [
                {
                    "attributes" : {
                        "POSITION" : 19,
                        "NORMAL" : 20,
                        "TEXCOORD_0" : 21
                    },
                    "indices" : 22,
                    "material" : 5
                }
            ]
        },
        {
            "name" : "Cilindro.009",
            "primitives" : [
                {
                    "attributes" : {
                        "POSITION" : 23,
                        "NORMAL" : 24,
                        "TEXCOORD_0" : 25
                    },
                    "indices" : 26,
                    "material" : 6
                }
            ]
        }
    ],
    "textures" : [
        {
            "sampler" : 0,
            "source" : 0
        },
        {
            "sampler" : 0,
            "source" : 0
        },
        {
            "sampler" : 0,
            "source" : 0
        },
        {
            "sampler" : 0,
            "source" : 1
        },
        {
            "sampler" : 0,
            "source" : 0
        }
    ],
    "images" : [
        {
            "bufferView" : 4,
            "mimeType" : "image/jpeg",
            "name" : "cimento"
        },
        {
            "bufferView" : 16,
            "mimeType" : "image/jpeg",
            "name" : "vidroFosco"
        }
    ],
    "accessors" : [
        {
            "bufferView" : 0,
            "componentType" : 5126,
            "count" : 136,
            "max" : [
                -0.2556617856025696,
                1.3612439632415771,
                -0.6507221460342407
            ],
            "min" : [
                -3.8993213176727295,
                1.0474574565887451,
                -5.367746353149414
            ],
            "type" : "VEC3"
        },
        {
            "bufferView" : 1,
            "componentType" : 5126,
            "count" : 136,
            "type" : "VEC3"
        },
        {
            "bufferView" : 2,
            "componentType" : 5126,
            "count" : 136,
            "type" : "VEC2"
        },
        {
            "bufferView" : 3,
            "componentType" : 5123,
            "count" : 204,
            "type" : "SCALAR"
        },
        {
            "bufferView" : 5,
            "componentType" : 5126,
            "count" : 136,
            "max" : [
                6.305276393890381,
                1.3615909814834595,
                1.028396487236023
            ],
            "min" : [
                0.9938244819641113,
                1.046839952468872,
                -0.1175270676612854
            ],
            "type" : "VEC3"
        },
        {
            "bufferView" : 6,
            "componentType" : 5126,
            "count" : 136,
            "type" : "VEC3"
        },
        {
            "bufferView" : 7,
            "componentType" : 5126,
            "count" : 136,
            "type" : "VEC2"
        },
        {
            "bufferView" : 8,
            "componentType" : 5123,
            "count" : 204,
            "type" : "SCALAR"
        },
        {
            "bufferView" : 9,
            "componentType" : 5126,
            "count" : 136,
            "max" : [
                6.305276393890381,
                1.3615909814834595,
                1.028396487236023
            ],
            "min" : [
                0.9938244819641113,
                1.046839952468872,
                -0.1175270676612854
            ],
            "type" : "VEC3"
        },
        {
            "bufferView" : 10,
            "componentType" : 5126,
            "count" : 136,
            "type" : "VEC3"
        },
        {
            "bufferView" : 11,
            "componentType" : 5126,
            "count" : 136,
            "type" : "VEC2"
        },
        {
            "bufferView" : 12,
            "componentType" : 5126,
            "count" : 264,
            "max" : [
                0.965640664100647,
                1,
                1.1759411096572876
            ],
            "min" : [
                -1.0331840515136719,
                -1.000000238418579,
                -0.8228837251663208
            ],
            "type" : "VEC3"
        },
        {
            "bufferView" : 13,
            "componentType" : 5126,
            "count" : 264,
            "type" : "VEC3"
        },
        {
            "bufferView" : 14,
            "componentType" : 5126,
            "count" : 264,
            "type" : "VEC2"
        },
        {
            "bufferView" : 15,
            "componentType" : 5123,
            "count" : 438,
            "type" : "SCALAR"
        },
        {
            "bufferView" : 17,
            "componentType" : 5126,
            "count" : 608,
            "max" : [
                2.0895352363586426,
                1.0905612707138062,
                2.299837589263916
            ],
            "min" : [
                -2.1570827960968018,
                1,
                -1.9467790126800537
            ],
            "type" : "VEC3"
        },
        {
            "bufferView" : 18,
            "componentType" : 5126,
            "count" : 608,
            "type" : "VEC3"
        },
        {
            "bufferView" : 19,
            "componentType" : 5126,
            "count" : 608,
            "type" : "VEC2"
        },
        {
            "bufferView" : 20,
            "componentType" : 5123,
            "count" : 954,
            "type" : "SCALAR"
        },
        {
            "bufferView" : 21,
            "componentType" : 5126,
            "count" : 1612,
            "max" : [
                5.896669864654541,
                1.3525038957595825,
                6.020038604736328
            ],
            "min" : [
                -5.95863151550293,
                1.1932909488677979,
                -5.835262298583984
            ],
            "type" : "VEC3"
        },
        {
            "bufferView" : 22,
            "componentType" : 5126,
            "count" : 1612,
            "type" : "VEC3"
        },
        {
            "bufferView" : 23,
            "componentType" : 5126,
            "count" : 1612,
            "type" : "VEC2"
        },
        {
            "bufferView" : 24,
            "componentType" : 5123,
            "count" : 2502,
            "type" : "SCALAR"
        },
        {
            "bufferView" : 25,
            "componentType" : 5126,
            "count" : 192,
            "max" : [
                1,
                1,
                1
            ],
            "min" : [
                -1,
                -1,
                -1
            ],
            "type" : "VEC3"
        },
        {
            "bufferView" : 26,
            "componentType" : 5126,
            "count" : 192,
            "type" : "VEC3"
        },
        {
            "bufferView" : 27,
            "componentType" : 5126,
            "count" : 192,
            "type" : "VEC2"
        },
        {
            "bufferView" : 28,
            "componentType" : 5123,
            "count" : 372,
            "type" : "SCALAR"
        }
    ],
    "bufferViews" : [
        {
            "buffer" : 0,
            "byteLength" : 1632,
            "byteOffset" : 0
        },
        {
            "buffer" : 0,
            "byteLength" : 1632,
            "byteOffset" : 1632
        },
        {
            "buffer" : 0,
            "byteLength" : 1088,
            "byteOffset" : 3264
        },
        {
            "buffer" : 0,
            "byteLength" : 408,
            "byteOffset" : 4352
        },
        {
            "buffer" : 0,
            "byteLength" : 71498,
            "byteOffset" : 4760
        },
        {
            "buffer" : 0,
            "byteLength" : 1632,
            "byteOffset" : 76260
        },
        {
            "buffer" : 0,
            "byteLength" : 1632,
            "byteOffset" : 77892
        },
        {
            "buffer" : 0,
            "byteLength" : 1088,
            "byteOffset" : 79524
        },
        {
            "buffer" : 0,
            "byteLength" : 408,
            "byteOffset" : 80612
        },
        {
            "buffer" : 0,
            "byteLength" : 1632,
            "byteOffset" : 81020
        },
        {
            "buffer" : 0,
            "byteLength" : 1632,
            "byteOffset" : 82652
        },
        {
            "buffer" : 0,
            "byteLength" : 1088,
            "byteOffset" : 84284
        },
        {
            "buffer" : 0,
            "byteLength" : 3168,
            "byteOffset" : 85372
        },
        {
            "buffer" : 0,
            "byteLength" : 3168,
            "byteOffset" : 88540
        },
        {
            "buffer" : 0,
            "byteLength" : 2112,
            "byteOffset" : 91708
        },
        {
            "buffer" : 0,
            "byteLength" : 876,
            "byteOffset" : 93820
        },
        {
            "buffer" : 0,
            "byteLength" : 7726,
            "byteOffset" : 94696
        },
        {
            "buffer" : 0,
            "byteLength" : 7296,
            "byteOffset" : 102424
        },
        {
            "buffer" : 0,
            "byteLength" : 7296,
            "byteOffset" : 109720
        },
        {
            "buffer" : 0,
            "byteLength" : 4864,
            "byteOffset" : 117016
        },
        {
            "buffer" : 0,
            "byteLength" : 1908,
            "byteOffset" : 121880
        },
        {
            "buffer" : 0,
            "byteLength" : 19344,
            "byteOffset" : 123788
        },
        {
            "buffer" : 0,
            "byteLength" : 19344,
            "byteOffset" : 143132
        },
        {
            "buffer" : 0,
            "byteLength" : 12896,
            "byteOffset" : 162476
        },
        {
            "buffer" : 0,
            "byteLength" : 5004,
            "byteOffset" : 175372
        },
        {
            "buffer" : 0,
            "byteLength" : 2304,
            "byteOffset" : 180376
        },
        {
            "buffer" : 0,
            "byteLength" : 2304,
            "byteOffset" : 182680
        },
        {
            "buffer" : 0,
            "byteLength" : 1536,
            "byteOffset" : 184984
        },
        {
            "buffer" : 0,
            "byteLength" : 744,
            "byteOffset" : 186520
        }
    ],
    "samplers" : [
        {
            "magFilter" : 9729,
            "minFilter" : 9986
        }
    ],
    "buffers" : [
        {
            "byteLength" : 187264,
            "uri" : "data:application/octet-stream;base64,"
        }
    ]
}
